<svg width="139" height="139" viewBox="0 0 139 139" fill="none" xmlns="http://www.w3.org/2000/svg">
<path d="M111.27 76.9766C108.066 76.9766 105.059 75.7227 102.793 73.4492C102.176 72.8281 102.176 71.8203 102.793 71.1992C103.41 70.5781 104.414 70.5781 105.035 71.1992C106.699 72.875 108.914 73.793 111.27 73.793C113.625 73.793 115.84 72.875 117.508 71.1992L133.039 55.6055C136.477 52.1523 136.477 46.5312 133.039 43.0781L121.777 31.7695C118.914 28.8945 119.895 22.3711 120.832 18.4453C117.039 19.4219 110.543 20.4922 107.516 17.4492L96.2539 6.14062C92.8164 2.6875 87.2188 2.6875 83.7812 6.14062L68.25 21.7383C64.8125 25.1914 64.8125 30.8086 68.25 34.2617C68.8672 34.8828 68.8672 35.8906 68.25 36.5117C67.6289 37.1328 66.6289 37.1328 66.0078 36.5117C61.3359 31.8164 61.3359 24.1797 66.0078 19.4883L81.5391 3.89062C86.2148 -0.800781 93.8203 -0.800781 98.4922 3.89062L109.754 15.2031C111.934 17.3906 119.344 15.7422 122.594 14.6016C123.16 14.4023 123.789 14.543 124.219 14.9648C124.648 15.3828 124.809 16.0117 124.625 16.5859C123.277 20.8594 122.199 27.6953 124.016 29.5195L135.277 40.8281C139.953 45.5234 139.953 53.1602 135.277 57.8555L119.746 73.4492C117.484 75.7227 114.473 76.9766 111.27 76.9766Z" fill="#8F73B2"/>
<path d="M49.6797 138.824C46.4766 138.824 43.4648 137.574 41.1992 135.301L29.9375 123.992C27.8438 121.887 20.9531 123.242 17.1016 124.59C16.5352 124.789 15.9063 124.648 15.4727 124.227C15.043 123.809 14.8867 123.18 15.0664 122.605C16.4141 118.332 17.4961 111.496 15.6797 109.672L4.41797 98.3633C-0.257812 93.668 -0.257812 86.0312 4.41797 81.3359L19.9453 65.7422C24.6211 61.0469 32.2266 61.0469 36.9023 65.7422C37.5195 66.3633 37.5195 67.3711 36.9023 67.9922C36.2812 68.6133 35.2773 68.6133 34.6602 67.9922C31.2227 64.5391 25.625 64.5391 22.1875 67.9922L6.65625 83.5859C3.21875 87.0391 3.21875 92.6602 6.65625 96.1133L17.918 107.422C20.7812 110.297 19.8008 116.816 18.8633 120.746C22.6563 119.77 29.1484 118.699 32.1797 121.742L43.4414 133.051C45.1055 134.723 47.3203 135.645 49.6758 135.645C52.0313 135.645 54.2461 134.723 55.9141 133.051L71.4453 117.453C74.8828 114 74.8828 108.383 71.4453 104.93C70.8242 104.309 70.8242 103.301 71.4453 102.68C72.0625 102.059 73.0664 102.059 73.6836 102.68C78.3594 107.375 78.3594 115.012 73.6836 119.703L58.1523 135.297C55.8906 137.574 52.8789 138.824 49.6797 138.824Z" fill="#8F73B2"/>
<path d="M90.0156 138.82C86.9453 138.82 83.8789 137.648 81.5391 135.301L66.0078 119.703C61.3359 115.012 61.3359 107.371 66.0078 102.68C66.6289 102.059 67.6289 102.059 68.25 102.68C68.8672 103.301 68.8672 104.305 68.25 104.93C64.8125 108.383 64.8086 114 68.25 117.453L83.7812 133.051C87.2188 136.504 92.8164 136.504 96.2539 133.051L107.516 121.742C110.379 118.867 116.871 119.852 120.785 120.789C119.813 116.98 118.746 110.461 121.773 107.422L133.039 96.1133C136.477 92.6563 136.477 87.0391 133.039 83.5859L117.508 67.9922C115.84 66.3164 113.625 65.3984 111.27 65.3984C108.914 65.3984 106.699 66.3164 105.031 67.9922C104.414 68.6133 103.41 68.6133 102.793 67.9922C102.172 67.3711 102.172 66.3633 102.793 65.7422C105.059 63.4687 108.066 62.2148 111.27 62.2148C114.473 62.2148 117.484 63.4687 119.746 65.7422L135.277 81.3359C139.953 86.0312 139.953 93.668 135.277 98.3594L124.016 109.672C121.836 111.859 123.477 119.301 124.613 122.562C124.809 123.129 124.672 123.762 124.254 124.195C123.836 124.629 123.211 124.785 122.637 124.602C118.383 123.25 111.574 122.164 109.758 123.992L98.4961 135.301C96.1562 137.645 93.0859 138.82 90.0156 138.82Z" fill="#8F73B2"/>
<path d="M28.4219 76.9688C25.3516 76.9688 22.2852 75.7969 19.9453 73.4492L4.41797 57.8516C-0.257812 53.1602 -0.257812 45.5234 4.41797 40.8281L15.6797 29.5195C17.7734 27.4141 16.4258 20.4961 15.082 16.6289C14.8867 16.0586 15.0234 15.4258 15.4414 14.9961C15.8594 14.5625 16.4883 14.4062 17.0586 14.5859C21.3125 15.9414 28.1211 17.0273 29.9375 15.1992L41.1992 3.89063C45.875 -0.800781 53.4805 -0.804688 58.1523 3.89063L73.6836 19.4883C78.3594 24.1797 78.3594 31.8164 73.6836 36.5117C73.0664 37.1328 72.0625 37.1328 71.4453 36.5117C70.8242 35.8906 70.8242 34.8828 71.4453 34.2617C74.8828 30.8086 74.8828 25.1875 71.4453 21.7344L55.9141 6.14062C52.4727 2.6875 46.8789 2.6875 43.4414 6.14062L32.1797 17.4492C29.3164 20.3242 22.8203 19.3398 18.9102 18.3984C19.8828 22.207 20.9453 28.7266 17.918 31.7695L6.65625 43.0781C3.21875 46.5312 3.21875 52.1484 6.65625 55.6016L22.1875 71.1992C25.625 74.6523 31.2227 74.6523 34.6602 71.1992C35.2813 70.5781 36.2852 70.5781 36.9023 71.1992C37.5195 71.8203 37.5195 72.8281 36.9023 73.4492C34.5625 75.7969 31.4922 76.9688 28.4219 76.9688Z" fill="#8F73B2"/>
<path d="M70.3008 60.2031C70 60.2031 69.6992 60.1172 69.4375 59.9453C69.2148 59.8008 64.0508 56.3516 64.0469 50.1758C64.0469 44.4531 68.707 35.7148 68.9062 35.3438C69.1836 34.832 69.7188 34.5078 70.3008 34.5078C70.8828 34.5078 71.418 34.832 71.6953 35.3438C71.8945 35.7148 76.5547 44.4531 76.5547 50.1758C76.5547 56.3516 71.3867 59.8008 71.1641 59.9453C70.9023 60.1172 70.6016 60.2031 70.3008 60.2031ZM70.3008 39.7148C68.9883 42.6016 67.2188 47.0664 67.2188 50.1758C67.2188 53.3047 69.1328 55.5234 70.2969 56.5781C71.4609 55.5117 73.3867 53.2773 73.3867 50.1758C73.3867 47.0664 71.6172 42.6016 70.3008 39.7148Z" fill="#8F73B2"/>
<path d="M69.2461 104.738C68.6641 104.738 68.1289 104.418 67.8516 103.902C67.6523 103.535 62.9922 94.793 62.9922 89.0742C62.9922 82.8984 68.1602 79.4453 68.3789 79.3008C68.9063 78.9609 69.582 78.9609 70.1094 79.3008C70.3281 79.4453 75.4961 82.8984 75.4961 89.0742C75.4961 94.793 70.8359 103.535 70.6406 103.902C70.3633 104.418 69.8281 104.738 69.2461 104.738ZM69.25 82.668C68.0898 83.7344 66.1602 85.9687 66.1602 89.0742C66.1602 92.0195 67.8398 96.4297 69.2422 99.5352C70.5586 96.6484 72.3281 92.1797 72.3281 89.0742C72.3281 85.9453 70.4141 83.7266 69.25 82.668Z" fill="#8F73B2"/>
<path d="M89.1406 75.3711C82.9922 75.3711 79.5547 70.1836 79.4102 69.9609C79.0703 69.4336 79.0703 68.7539 79.4102 68.2266C79.5547 68.0039 82.9922 62.8164 89.1406 62.8164C94.8398 62.8164 103.543 67.4961 103.91 67.6914C104.422 67.9688 104.742 68.5078 104.742 69.0938C104.742 69.6797 104.422 70.2148 103.91 70.4922C103.543 70.6914 94.8398 75.3711 89.1406 75.3711ZM82.7695 69.0938C83.832 70.2617 86.0547 72.1914 89.1406 72.1914C92.2344 72.1914 96.6797 70.4141 99.5547 69.0938C96.6797 67.7734 92.2344 65.9961 89.1406 65.9961C86.0547 65.9961 83.832 67.9258 82.7695 69.0938Z" fill="#8F73B2"/>
<path d="M50.4062 76.4336C44.707 76.4336 36.0039 71.7539 35.6367 71.5547C35.125 71.2773 34.8047 70.7383 34.8047 70.1523C34.8047 69.5703 35.125 69.0313 35.6367 68.7539C36.0039 68.5547 44.707 63.875 50.4062 63.875C56.5547 63.875 59.9922 69.0625 60.1367 69.2852C60.4766 69.8125 60.4766 70.4922 60.1367 71.0195C59.9922 71.2422 56.5547 76.4336 50.4062 76.4336ZM39.9883 70.1523C42.8633 71.4727 47.3086 73.25 50.4062 73.25C53.5234 73.25 55.7305 71.3281 56.7812 70.1602C55.7227 68.9922 53.4961 67.0586 50.4062 67.0586C47.4727 67.0586 43.0781 68.7422 39.9883 70.1523Z" fill="#8F73B2"/>
<path d="M79.1054 63.2189C77.8046 63.2189 76.9218 63.0392 76.8241 63.0197C76.2108 62.8869 75.7343 62.4064 75.6054 61.7931C75.5507 61.5314 74.3241 55.422 78.6757 51.0548C82.703 47.0119 92.1522 44.1408 92.5507 44.0197C93.1093 43.8517 93.7147 44.0079 94.1249 44.4181C94.539 44.8322 94.6913 45.4415 94.5233 46.0001C94.4022 46.4025 91.5429 55.8869 87.5155 59.9337C84.8163 62.6486 81.4491 63.2189 79.1054 63.2189ZM78.5897 60.0236C78.746 60.0314 78.9179 60.0353 79.1054 60.0353C80.8515 60.0353 83.3397 59.629 85.2772 57.6837C87.4647 55.4884 89.3554 51.0744 90.4569 48.1017C87.496 49.2111 83.1015 51.1095 80.914 53.3048C78.7304 55.5001 78.5194 58.4415 78.5897 60.0236Z" fill="#8F73B2"/>
<path d="M46.5427 95.293C46.1248 95.293 45.7224 95.1328 45.4216 94.8281C45.0076 94.4141 44.8552 93.8086 45.0232 93.2461C45.1443 92.8477 47.9998 83.3594 52.031 79.3125C54.7341 76.5977 58.0974 76.0312 60.4451 76.0312C61.742 76.0312 62.6248 76.207 62.7224 76.2266C63.3357 76.3594 63.8123 76.8398 63.9412 77.457C63.9959 77.7148 65.2224 83.8242 60.8709 88.1914C56.8435 92.2383 47.3943 95.1094 46.9959 95.2266C46.8435 95.2734 46.6912 95.293 46.5427 95.293ZM60.4451 79.2109C58.6951 79.2109 56.2068 79.6172 54.2693 81.5625C52.1951 83.6445 50.2771 87.957 49.0857 91.1484C52.0466 90.0391 56.4451 88.1406 58.6326 85.9414C60.8396 83.7266 61.0427 80.7969 60.9646 79.2227C60.8045 79.2148 60.6287 79.2109 60.4451 79.2109Z" fill="#8F73B2"/>
<path d="M93.7538 94.543C93.6014 94.543 93.4491 94.5234 93.3006 94.4766C92.8983 94.3555 83.4491 91.4844 79.4217 87.4414C75.0741 83.0742 76.2967 76.9648 76.3514 76.707C76.4803 76.0898 76.9608 75.6094 77.5741 75.4766C77.6678 75.457 78.5506 75.2773 79.8514 75.2773C82.1991 75.2773 85.5624 75.8477 88.2655 78.5625C92.0389 82.3516 94.785 90.9219 95.2147 92.3164C95.3006 92.5117 95.3475 92.7266 95.3475 92.9531C95.3475 93.832 94.6405 94.543 93.7655 94.543C93.7616 94.543 93.7577 94.543 93.7538 94.543ZM79.3358 78.4727C79.2655 80.0508 79.4764 82.9961 81.66 85.1914C83.7342 87.2734 88.0311 89.2031 91.2069 90.3984C90.1053 87.4258 88.2108 83.0078 86.0233 80.8125C84.0897 78.8672 81.5975 78.4609 79.8514 78.4609C79.6678 78.4609 79.496 78.4648 79.3358 78.4727Z" fill="#8F73B2"/>
<path d="M59.6952 63.9689C57.3475 63.9689 53.9842 63.3986 51.2811 60.6876C47.2538 56.6408 44.3944 47.1525 44.2772 46.7501C44.1092 46.1915 44.2616 45.5822 44.6717 45.1681C45.0858 44.7579 45.6874 44.6017 46.2459 44.7697C46.6483 44.8908 56.0975 47.7619 60.1249 51.8048C64.4725 56.1759 63.2499 62.2853 63.1952 62.5431C63.0663 63.1564 62.5858 63.6408 61.9725 63.7697C61.8788 63.7892 60.9959 63.9689 59.6952 63.9689ZM48.3397 48.8478C49.4413 51.8244 51.3358 56.2384 53.5233 58.4376C55.4569 60.379 57.9452 60.7853 59.6952 60.7853C59.8788 60.7853 60.0506 60.7814 60.2108 60.7736C60.2811 59.1954 60.0702 56.2501 57.8827 54.0548C55.8084 51.9728 51.5155 50.047 48.3397 48.8478Z" fill="#8F73B2"/>
<path d="M69.6719 76.707C67.7305 76.707 65.9063 75.9492 64.5352 74.5703C63.1641 73.1953 62.4102 71.3633 62.4102 69.418C62.4102 67.4687 63.1641 65.6406 64.5352 64.2617C65.9063 62.8867 67.7305 62.1289 69.6719 62.1289C71.6094 62.1289 73.4336 62.8867 74.8047 64.2617C76.1758 65.6406 76.9297 67.4687 76.9297 69.418C76.9297 71.3633 76.1758 73.1953 74.8047 74.5703C73.4336 75.9492 71.6094 76.707 69.6719 76.707ZM69.6719 65.3086C68.5781 65.3086 67.5508 65.7383 66.7773 66.5117C66.0039 67.2891 65.5781 68.3203 65.5781 69.418C65.5781 70.5156 66.0039 71.5469 66.7773 72.3242C67.5508 73.0977 68.5781 73.5273 69.6719 73.5273C70.7617 73.5273 71.793 73.0977 72.5625 72.3242C73.3359 71.5469 73.7617 70.5156 73.7617 69.418C73.7617 68.3203 73.3359 67.2891 72.5625 66.5117C71.7891 65.7383 70.7617 65.3086 69.6719 65.3086Z" fill="#8F73B2"/>
<path d="M45.793 47.8867C45.3867 47.8867 44.9805 47.7305 44.6719 47.418L26.6016 29.2695C25.9805 28.6484 25.9805 27.6406 26.6016 27.0195C27.2187 26.3984 28.2227 26.3984 28.8398 27.0195L46.9141 45.168C47.5313 45.7891 47.5313 46.7969 46.9141 47.418C46.6055 47.7305 46.1992 47.8867 45.793 47.8867Z" fill="#8F73B2"/>
<path d="M93.0039 47.1367C92.6016 47.1367 92.1953 46.9805 91.8867 46.668C91.2656 46.0469 91.2656 45.0391 91.8867 44.418L110.465 25.7617C111.082 25.1406 112.086 25.1406 112.703 25.7617C113.324 26.3828 113.324 27.3906 112.703 28.0117L94.125 46.668C93.8164 46.9805 93.4102 47.1367 93.0039 47.1367Z" fill="#8F73B2"/>
<path d="M109.801 110.66C109.395 110.66 108.992 110.504 108.684 110.195L93.543 94.9922C92.9219 94.3711 92.9219 93.3633 93.543 92.7422C94.1602 92.1211 95.1641 92.1211 95.7813 92.7422L110.922 107.945C111.539 108.566 111.539 109.574 110.922 110.195C110.613 110.504 110.207 110.66 109.801 110.66Z" fill="#8F73B2"/>
<path d="M30.4687 111.434C30.0625 111.434 29.6562 111.277 29.3477 110.969C28.7305 110.348 28.7305 109.34 29.3477 108.719L45.4219 92.5781C46.0391 91.957 47.043 91.957 47.6602 92.5781C48.2813 93.1992 48.2813 94.207 47.6602 94.8281L31.5898 110.969C31.2812 111.277 30.875 111.434 30.4687 111.434Z" fill="#8F73B2"/>
</svg>
